<svg xmlns="http://www.w3.org/2000/svg">
    <symbol xmlns="http://www.w3.org/2000/svg" id="shopping-carriage" viewBox="0 0 24 24" fill="none">
        <path
                d="M5 22H19C20.103 22 21 21.103 21 20V9C21 8.73478 20.8946 8.48043 20.7071 8.29289C20.5196 8.10536 20.2652 8 20 8H17V7C17 4.243 14.757 2 12 2C9.243 2 7 4.243 7 7V8H4C3.73478 8 3.48043 8.10536 3.29289 8.29289C3.10536 8.48043 3 8.73478 3 9V20C3 21.103 3.897 22 5 22ZM9 7C9 5.346 10.346 4 12 4C13.654 4 15 5.346 15 7V8H9V7ZM5 10H7V12H9V10H15V12H17V10H19L19.002 20H5V10Z"
                fill="black"/>
    </symbol>
    <symbol xmlns="http://www.w3.org/2000/svg" id="quick-view" viewBox="0 0 24 24">
        <path fill="currentColor"
              d="M10 18a7.952 7.952 0 0 0 4.897-1.688l4.396 4.396l1.414-1.414l-4.396-4.396A7.952 7.952 0 0 0 18 10c0-4.411-3.589-8-8-8s-8 3.589-8 8s3.589 8 8 8zm0-14c3.309 0 6 2.691 6 6s-2.691 6-6 6s-6-2.691-6-6s2.691-6 6-6z"/>
    </symbol>
    <symbol xmlns="http://www.w3.org/2000/svg" id="shopping-cart" viewBox="0 0 24 24" fill="none">
        <path
                d="M21 4H2V6H4.3L7.582 15.025C7.79362 15.6029 8.1773 16.1021 8.68134 16.4552C9.18539 16.8083 9.78556 16.9985 10.401 17H19V15H10.401C9.982 15 9.604 14.735 9.461 14.342L8.973 13H18.246C19.136 13 19.926 12.402 20.169 11.549L21.962 5.275C22.0039 5.12615 22.0109 4.96962 21.9823 4.81763C21.9537 4.66565 21.8904 4.52234 21.7973 4.39889C21.7041 4.27544 21.5837 4.1752 21.4454 4.106C21.3071 4.0368 21.1546 4.00053 21 4ZM18.246 11H8.246L6.428 6H19.675L18.246 11Z"
                fill="black"/>
        <path
                d="M10.5 21C11.3284 21 12 20.3284 12 19.5C12 18.6716 11.3284 18 10.5 18C9.67157 18 9 18.6716 9 19.5C9 20.3284 9.67157 21 10.5 21Z"
                fill="black"/>
        <path
                d="M16.5 21C17.3284 21 18 20.3284 18 19.5C18 18.6716 17.3284 18 16.5 18C15.6716 18 15 18.6716 15 19.5C15 20.3284 15.6716 21 16.5 21Z"
                fill="black"/>
    </symbol>
    <symbol xmlns="http://www.w3.org/2000/svg" id="nav-icon" viewBox="0 0 16 16">
        <path
                d="M14 10.5a.5.5 0 0 0-.5-.5h-3a.5.5 0 0 0 0 1h3a.5.5 0 0 0 .5-.5zm0-3a.5.5 0 0 0-.5-.5h-7a.5.5 0 0 0 0 1h7a.5.5 0 0 0 .5-.5zm0-3a.5.5 0 0 0-.5-.5h-11a.5.5 0 0 0 0 1h11a.5.5 0 0 0 .5-.5z"/>
    </symbol>
    <symbol xmlns="http://www.w3.org/2000/svg" id="close" viewBox="0 0 16 16">
        <path
                d="M2.146 2.854a.5.5 0 1 1 .708-.708L8 7.293l5.146-5.147a.5.5 0 0 1 .708.708L8.707 8l5.147 5.146a.5.5 0 0 1-.708.708L8 8.707l-5.146 5.147a.5.5 0 0 1-.708-.708L7.293 8 2.146 2.854Z"/>
    </symbol>
    <symbol xmlns="http://www.w3.org/2000/svg" id="navbar-icon" viewBox="0 0 16 16">
        <path
                d="M14 10.5a.5.5 0 0 0-.5-.5h-3a.5.5 0 0 0 0 1h3a.5.5 0 0 0 .5-.5zm0-3a.5.5 0 0 0-.5-.5h-7a.5.5 0 0 0 0 1h7a.5.5 0 0 0 .5-.5zm0-3a.5.5 0 0 0-.5-.5h-11a.5.5 0 0 0 0 1h11a.5.5 0 0 0 .5-.5z"/>
    </symbol>
    <symbol xmlns="http://www.w3.org/2000/svg" id="plus" viewBox="0 0 24 24">
        <path fill="currentColor" d="M19 12.998h-6v6h-2v-6H5v-2h6v-6h2v6h6z"/>
    </symbol>
    <symbol xmlns="http://www.w3.org/2000/svg" id="minus" viewBox="0 0 24 24">
        <path fill="currentColor" d="M19 12.998H5v-2h14z"/>
    </symbol>
    <symbol xmlns="http://www.w3.org/2000/svg" id="dropdown" viewBox="0 0 24 24">
        <path fill="currentColor" d="m7 10l5 5l5-5H7Z"/>
    </symbol>
    <symbol xmlns="http://www.w3.org/2000/svg" id="user" viewBox="0 0 24 24">
        <path fill="currentColor"
              d="M12 2a5 5 0 1 0 5 5a5 5 0 0 0-5-5zm0 8a3 3 0 1 1 3-3a3 3 0 0 1-3 3zm9 11v-1a7 7 0 0 0-7-7h-4a7 7 0 0 0-7 7v1h2v-1a5 5 0 0 1 5-5h4a5 5 0 0 1 5 5v1z"/>
    </symbol>
    <symbol xmlns="http://www.w3.org/2000/svg" id="search" viewBox="0 0 24 24">
        <path fill="currentColor"
              d="M10 18a7.952 7.952 0 0 0 4.897-1.688l4.396 4.396l1.414-1.414l-4.396-4.396A7.952 7.952 0 0 0 18 10c0-4.411-3.589-8-8-8s-8 3.589-8 8s3.589 8 8 8zm0-14c3.309 0 6 2.691 6 6s-2.691 6-6 6s-6-2.691-6-6s2.691-6 6-6z"/>
    </symbol>
</svg>